<?xml version="1.0" standalone="no"?>
<!DOCTYPE svg PUBLIC "-//W3C//DTD SVG 20010904//EN"
 "http://www.w3.org/TR/2001/REC-SVG-20010904/DTD/svg10.dtd">
<svg version="1.0" xmlns="http://www.w3.org/2000/svg"
 width="275.000000pt" height="183.000000pt" viewBox="0 0 275.000000 183.000000"
 preserveAspectRatio="xMidYMid meet">

<g transform="translate(0.000000,183.000000) scale(0.100000,-0.100000)"
fill="#000000" stroke="none">
<path d="M0 1816 c0 -13 100 -88 160 -122 11 -6 28 -18 38 -27 10 -10 22 -17
26 -17 5 0 26 -14 47 -31 37 -29 38 -32 22 -45 -17 -12 -17 -13 5 -14 13 0 22
-6 22 -15 0 -12 -20 -15 -119 -15 -69 0 -122 4 -126 10 -4 6 7 10 24 10 17 0
31 5 31 10 0 6 -28 10 -65 10 l-65 0 0 -322 c0 -212 4 -318 10 -308 5 8 10 10
10 3 0 -6 14 2 31 18 29 27 67 41 54 19 -4 -6 -10 -8 -14 -6 -3 3 -7 -4 -7
-14 0 -17 2 -18 16 -5 20 18 34 20 24 3 -5 -7 -3 -8 6 -3 7 4 16 2 21 -6 6 -9
12 -10 17 -4 4 6 15 11 25 11 14 2 15 -1 6 -12 -7 -8 -9 -18 -5 -22 4 -4 12 2
18 12 8 15 12 16 19 5 28 -44 -4 -105 -61 -119 -33 -7 -33 -8 -7 -9 42 -1 87
47 87 93 0 19 -4 38 -10 41 -17 11 -11 34 13 46 12 7 51 15 87 18 46 4 66 10
68 21 2 12 -13 15 -83 15 -71 1 -88 4 -103 21 -17 17 -17 21 -4 34 8 7 31 19
51 27 l36 14 -33 -5 c-23 -4 -31 -2 -26 6 4 7 3 8 -5 4 -6 -4 -13 0 -17 11 -3
10 -10 26 -15 35 -14 26 -11 34 4 13 8 -10 19 -15 26 -11 6 4 22 1 34 -7 12
-8 34 -13 47 -12 14 1 38 3 53 4 16 0 26 4 24 9 -2 4 9 18 26 32 l30 24 -16
-25 c-10 -14 -15 -28 -12 -31 3 -3 -1 -11 -10 -18 -22 -19 -108 -17 -139 3
-31 20 -43 22 -27 4 17 -21 86 -38 128 -31 36 5 39 4 50 -27 7 -17 10 -37 6
-43 -3 -6 -2 -8 2 -3 5 4 20 -12 33 -35 17 -28 22 -43 14 -46 -16 -5 -42 -56
-42 -81 0 -11 -8 -22 -17 -24 -13 -3 -14 -5 -3 -6 8 -1 24 -16 35 -34 27 -45
29 -51 15 -42 -9 6 -11 4 -5 -4 5 -9 -13 -35 -51 -74 l-59 -62 56 54 57 53 81
2 c48 0 80 5 78 11 -1 6 -30 10 -64 10 -33 0 -56 3 -50 7 8 5 6 8 -5 8 -25 0
-58 53 -58 93 0 41 38 93 73 100 20 4 20 4 -3 6 -21 1 -32 14 -63 76 l-38 75
34 30 c19 17 38 41 41 55 4 14 14 25 23 25 15 0 15 -1 0 -18 -10 -10 -17 -25
-17 -33 0 -12 2 -12 9 0 5 8 16 11 24 8 8 -3 28 -2 44 3 15 4 22 9 16 9 -21 2
-14 21 7 21 11 0 20 -4 20 -9 0 -5 10 -13 21 -16 17 -6 19 -9 8 -16 -11 -7
-11 -9 -1 -9 7 0 18 -14 24 -32 11 -31 11 -31 20 -8 5 14 5 35 -1 52 -9 25 -8
28 12 29 21 1 21 1 -1 8 l-24 6 26 28 c14 16 30 25 36 22 8 -5 48 11 60 26 8
9 44 22 54 20 5 -1 6 5 2 14 -3 10 -2 13 5 10 5 -4 7 -15 4 -26 -4 -10 -2 -20
4 -20 6 -1 16 -2 21 -3 6 0 15 -8 20 -16 7 -11 10 -11 10 -2 0 10 4 10 23 0
l22 -12 -25 -7 -25 -7 25 -2 c14 -1 29 -2 34 -1 4 1 20 -6 35 -15 25 -17 26
-17 11 1 -14 17 -13 18 3 12 12 -5 16 -3 11 5 -5 8 -2 9 12 3 10 -5 31 -9 47
-9 15 -1 27 -4 27 -7 0 -4 15 -9 32 -11 18 -3 42 -9 52 -13 15 -6 17 -5 11 5
-6 10 1 12 33 8 36 -5 41 -3 45 16 4 20 4 20 6 -2 0 -12 -5 -25 -13 -28 -26
-10 53 -74 90 -74 26 0 34 -6 44 -30 7 -17 15 -29 17 -26 2 2 -2 17 -11 34 -8
16 -13 31 -11 33 2 3 -13 3 -34 1 -32 -3 -42 1 -59 23 -24 31 -21 46 7 38 13
-3 20 2 24 17 6 23 27 19 27 -6 0 -8 9 -14 20 -14 12 0 20 7 20 16 0 10 -6 14
-15 10 -8 -3 -15 -1 -15 3 0 5 -3 16 -6 25 -3 9 -1 16 5 16 6 0 11 -7 11 -15
0 -9 9 -15 23 -15 21 1 21 1 4 14 -11 8 -14 17 -8 20 5 4 12 2 15 -3 7 -11 71
2 91 19 12 10 15 10 16 -1 0 -8 4 -5 9 6 7 17 9 17 9 3 1 -14 10 -18 40 -18
29 0 41 -5 44 -17 4 -17 5 -17 6 0 1 18 41 25 41 6 0 -5 5 -7 10 -4 6 3 10 0
10 -7 1 -8 6 -7 14 5 14 18 15 17 21 -3 4 -12 9 -19 12 -16 4 3 12 1 19 -5 8
-6 45 -13 84 -16 65 -4 70 -3 70 16 0 14 -5 19 -15 15 -8 -4 -15 -11 -15 -17
0 -6 -7 -5 -15 4 -14 14 -14 20 4 61 15 36 18 61 15 129 -4 73 -2 90 18 129
29 57 102 114 135 105 16 -4 23 -1 23 9 0 24 138 36 185 16 17 -8 15 -9 -10
-8 -51 1 -66 -2 -60 -12 3 -5 16 -10 28 -11 17 -1 14 -3 -10 -10 -22 -6 -39
-23 -58 -54 -14 -25 -23 -50 -20 -55 3 -6 1 -10 -5 -10 -6 0 -8 -4 -5 -10 8
-13 -1 -13 -26 0 -16 9 -19 7 -19 -9 0 -15 5 -19 17 -14 14 5 12 0 -7 -21 -13
-14 -30 -24 -37 -22 -7 3 -10 -1 -6 -10 3 -8 -1 -14 -9 -14 -28 0 -38 -21 -22
-46 9 -13 13 -32 9 -44 -4 -11 -2 -20 4 -20 6 0 11 -8 11 -17 0 -10 8 -32 19
-49 15 -25 19 -51 12 -85 0 -4 -11 -9 -22 -12 -14 -4 -20 -11 -16 -21 9 -23
-59 -43 -75 -22 -3 5 -26 10 -50 11 -23 1 -57 5 -74 9 -25 5 -33 3 -38 -10 -8
-22 0 -30 16 -16 13 10 67 5 69 -7 7 -31 5 -58 -3 -68 -17 -22 -38 -15 -38 12
0 18 5 25 20 25 31 0 23 18 -11 25 -21 5 -34 3 -39 -5 -4 -7 -12 -10 -18 -6
-11 7 -25 -21 -16 -35 3 -5 10 -7 15 -4 5 4 9 1 9 -4 0 -6 -4 -11 -10 -11 -5
0 -10 -9 -10 -20 0 -11 -5 -20 -10 -20 -7 0 -9 -16 -6 -41 3 -29 0 -46 -10
-57 -13 -12 -13 -16 -3 -23 10 -6 9 -9 -4 -15 -18 -7 -24 -54 -6 -54 5 0 7 -5
3 -11 -4 -7 -6 -26 -6 -43 2 -36 -16 -86 -30 -86 -6 0 -8 -10 -6 -23 2 -13 -1
-28 -7 -34 -7 -6 -15 -31 -20 -55 -6 -35 -8 -39 -15 -23 -7 15 -9 10 -9 -22
-1 -23 -5 -44 -9 -47 -5 -3 -15 -30 -22 -61 -7 -30 -17 -55 -22 -55 -4 0 -8
-9 -8 -20 0 -12 -6 -31 -14 -43 -18 -28 -56 -140 -56 -166 0 -14 9 -20 38 -25
20 -4 45 -9 55 -12 11 -3 20 1 24 13 4 10 19 30 35 45 23 21 28 23 28 9 0 -9
-5 -22 -10 -29 -6 -6 -7 -10 -4 -7 4 3 13 -3 20 -13 10 -14 10 -21 -3 -42 -9
-15 -10 -20 -2 -12 15 14 43 17 34 3 -3 -5 -1 -12 5 -16 5 -3 10 -22 10 -41
l0 -34 500 0 500 0 0 343 c0 188 -4 336 -8 329 -9 -13 -82 -30 -82 -19 0 3 9
21 19 39 40 70 35 147 -14 219 -24 33 -30 37 -43 27 -10 -8 -13 -9 -9 -2 4 7
0 15 -9 18 -22 9 -36 7 -30 -2 3 -5 -1 -9 -9 -9 -8 0 -12 3 -10 7 2 3 -5 6
-15 6 -11 0 -17 -2 -15 -5 3 -2 -8 -12 -24 -22 -43 -26 -63 -62 -63 -114 0
-38 -3 -45 -19 -45 -21 0 -27 -20 -6 -21 6 0 3 -5 -8 -10 -25 -13 -195 -235
-195 -255 0 -5 -15 -25 -43 -56 -10 -11 -16 -22 -13 -25 3 -3 0 -11 -7 -18 -7
-7 -25 -30 -42 -51 -16 -21 -46 -55 -66 -76 -20 -21 -49 -54 -64 -74 -19 -25
-33 -34 -46 -31 -11 3 -19 2 -19 -3 0 -12 -25 -19 -40 -10 -10 6 -10 16 4 51
10 23 17 59 16 78 -4 72 0 132 8 128 4 -3 8 6 8 19 2 23 1 24 -12 7 -7 -10
-14 -16 -14 -13 -7 34 -7 61 1 65 5 4 9 17 9 31 0 14 -4 22 -10 19 -9 -6 -14
8 -11 28 0 4 -3 7 -8 7 -5 0 -7 9 -4 20 6 21 18 26 27 11 4 -5 0 -11 -6 -14
-7 -2 -9 -8 -5 -13 4 -5 12 -2 17 6 5 8 14 16 20 16 5 1 15 2 21 3 14 1 7 36
-9 37 -6 1 -22 2 -35 3 -20 1 -23 6 -21 39 2 20 0 27 -2 14 -3 -12 -10 -22
-15 -22 -6 0 -7 -4 -4 -10 3 -6 2 -10 -4 -10 -6 0 -28 -33 -51 -72 -22 -40
-40 -68 -40 -63 0 6 7 69 16 140 8 72 16 141 16 155 0 14 6 36 13 50 31 62 37
80 32 94 -5 11 0 16 13 16 11 0 20 4 20 9 0 5 -9 7 -20 4 -11 -3 -20 0 -20 6
0 6 7 11 15 11 9 0 12 6 9 15 -4 8 -10 12 -15 9 -5 -3 -9 1 -9 9 0 9 11 14 30
14 18 0 30 -6 30 -13 0 -23 21 -26 42 -7 12 10 18 12 13 4 -6 -11 -4 -11 10
-3 14 7 18 22 18 61 -1 46 1 50 17 41 31 -16 118 -12 128 6 8 14 10 14 22 0
19 -24 23 -76 5 -76 -14 0 -17 -5 -19 -39 -2 -22 -24 -25 -28 -4 -2 13 -8 9
-25 -20 -12 -20 -27 -37 -33 -37 -15 0 -12 -26 6 -41 10 -8 18 -9 22 -3 7 10
82 36 112 38 9 1 20 5 27 9 7 5 9 0 6 -13 -8 -31 6 -73 22 -66 8 3 19 -3 25
-12 10 -15 11 -15 6 0 -2 9 2 19 10 22 9 3 14 -1 14 -12 1 -13 4 -11 15 8 l15
25 -5 -25 c-3 -14 -7 -41 -9 -60 -2 -19 -9 -36 -16 -38 -8 -3 -10 0 -5 8 6 9
3 9 -13 1 -15 -8 -21 -8 -25 2 -2 6 -8 9 -12 5 -12 -12 6 -30 26 -25 11 3 19
1 19 -3 0 -4 9 -6 20 -3 14 4 20 14 20 32 0 56 23 106 68 151 25 25 45 51 44
58 -2 6 4 12 13 12 8 0 15 5 15 10 0 17 25 11 38 -10 7 -12 23 -20 40 -20 37
-1 102 -32 131 -63 13 -14 36 -29 52 -32 26 -6 28 -10 32 -63 2 -31 4 118 5
331 l2 388 -97 -7 c-93 -6 -136 -14 -80 -14 41 0 41 -17 -1 -24 -59 -9 -112
-7 -112 5 0 6 -9 9 -20 6 -16 -4 -20 0 -20 19 0 13 5 24 10 24 6 0 9 3 9 8 -4
21 4 31 29 41 15 7 45 23 67 36 22 14 55 32 73 42 17 9 32 20 32 24 0 3 14 12
30 19 17 7 30 16 30 20 0 4 11 12 25 18 15 7 25 20 25 32 0 20 -5 20 -568 20
l-569 0 -11 -82 c-18 -120 -43 -219 -65 -250 -20 -30 -51 -39 -40 -12 5 14 3
15 -16 4 -29 -15 -40 -4 -15 15 18 14 17 15 -7 4 -20 -8 -33 -8 -50 1 l-24 11
23 -19 24 -19 -74 0 c-112 -1 -117 -2 -143 -19 -24 -15 -25 -15 -34 7 -7 17
-10 19 -10 7 -1 -28 -16 -28 -18 0 -1 28 -27 54 -47 46 -6 -2 -16 6 -21 18
-14 32 -43 35 -54 6 -11 -28 12 -59 37 -51 14 4 14 3 3 -5 -10 -7 -21 -6 -38
5 -13 8 -23 12 -23 7 0 -4 -6 1 -14 12 -8 10 -19 20 -25 20 -6 1 -15 2 -21 3
-5 0 -10 6 -10 12 0 6 6 9 14 6 7 -3 18 -1 24 5 8 8 13 3 18 -16 l7 -28 15 32
c20 42 51 56 91 42 23 -8 29 -8 25 2 -3 7 -22 13 -43 14 -28 2 -44 -4 -64 -22
-28 -26 -40 -16 -26 23 8 19 14 22 37 17 18 -4 22 -3 13 2 -11 8 -11 10 0 15
10 4 10 6 2 6 -7 1 -13 5 -13 11 0 5 18 3 40 -6 23 -9 44 -14 47 -10 6 5 -11
124 -23 169 -5 16 -40 17 -555 17 -471 0 -549 -2 -549 -14z m956 -223 c-10
-10 -19 5 -10 18 6 11 8 11 12 0 2 -7 1 -15 -2 -18z m724 18 c0 -5 8 -12 18
-14 9 -3 -7 -5 -35 -6 -73 -1 -69 20 5 28 6 0 12 -3 12 -8z m0 -45 c0 -16 78
-27 83 -13 3 10 87 -1 87 -11 0 -4 -18 -7 -41 -8 -22 0 -44 -6 -49 -13 -7 -13
-85 -12 -153 2 -34 7 -14 44 28 50 17 2 33 5 38 6 4 0 7 -5 7 -13z m-883 -38
c-3 -8 -6 -5 -6 6 -1 11 2 17 5 13 3 -3 4 -12 1 -19z m278 2 c0 -22 -29 -18
-33 3 -3 14 1 18 15 15 10 -2 18 -10 18 -18z m-305 -15 c14 -19 14 -19 -2 -6
-10 7 -18 18 -18 24 0 6 1 8 3 6 1 -2 9 -13 17 -24z m354 -13 c3 -5 -1 -9 -9
-9 -8 0 -12 4 -9 9 3 4 7 8 9 8 2 0 6 -4 9 -8z m-650 -74 c14 -19 14 -24 2
-36 -18 -19 -55 -6 -65 21 -15 40 37 52 63 15z m375 -20 c-12 -23 -20 -24 -12
-1 4 10 2 14 -5 9 -6 -3 -13 -2 -17 4 -4 6 4 9 19 8 20 -2 23 -5 15 -20z m791
12 c12 -8 12 -10 -5 -11 -17 -1 -16 -2 5 -9 15 -5 18 -8 8 -9 -26 -2 -48 10
-48 25 0 16 18 18 40 4z m-523 -6 c-3 -3 -12 -4 -19 -1 -8 3 -5 6 6 6 11 1 17
-2 13 -5z m318 -4 c4 -6 -16 -10 -52 -9 -42 0 -52 3 -38 9 28 12 83 12 90 0z
m160 -19 c3 -5 2 -12 -3 -15 -5 -3 -9 1 -9 9 0 17 3 19 12 6z m102 -5 c0 -8
-6 -12 -15 -9 -11 5 -11 7 0 14 7 5 13 9 14 9 0 0 1 -6 1 -14z m-340 -81 c-7
-7 -15 -11 -19 -9 -4 3 -11 -4 -17 -13 -10 -17 -10 -17 -11 0 0 25 21 45 42
39 13 -3 14 -7 5 -17z m-363 9 c24 -9 19 -22 -8 -20 -14 0 -22 6 -19 14 6 14
6 14 27 6z m-521 -81 c-11 -20 -25 -39 -32 -41 -6 -2 0 13 14 33 14 21 25 45
26 54 0 11 2 12 6 3 2 -7 -4 -29 -14 -49z m1966 -82 c8 -5 11 -16 8 -25 -5
-12 0 -16 19 -16 14 0 32 -7 40 -15 14 -13 13 -15 -5 -15 -12 0 -21 -4 -21
-10 0 -9 -67 -26 -75 -18 -2 2 -7 27 -10 56 -4 45 -2 52 13 52 9 0 23 -4 31
-9z m-499 -21 c0 -5 -2 -10 -4 -10 -3 0 -8 5 -11 10 -3 6 -1 10 4 10 6 0 11
-4 11 -10z m-26 -66 c3 -8 2 -12 -4 -9 -6 3 -10 10 -10 16 0 14 7 11 14 -7z
m243 -61 c-3 -10 -5 -4 -5 12 0 17 2 24 5 18 2 -7 2 -21 0 -30z m88 7 c0 -16
-4 -30 -8 -30 -12 0 -20 28 -13 45 9 25 21 17 21 -15z m60 10 c3 -5 -1 -10 -9
-10 -9 0 -16 5 -16 10 0 6 4 10 9 10 6 0 13 -4 16 -10z m-425 -520 c0 -5 -4
-10 -10 -10 -5 0 -10 5 -10 10 0 6 5 10 10 10 6 0 10 -4 10 -10z m674 -16 c3
-8 2 -12 -4 -9 -6 3 -10 1 -10 -6 0 -7 -2 -10 -5 -7 -5 5 4 38 10 38 2 0 6 -7
9 -16z m-690 -32 c-3 -25 -14 -44 -14 -23 0 7 -5 9 -12 5 -8 -5 -9 -2 -5 10 4
10 7 21 7 25 0 4 6 8 13 8 9 0 13 -10 11 -25z m662 -77 c-14 -18 -26 -38 -26
-44 0 -18 -38 -51 -43 -38 -5 15 11 48 31 63 8 6 12 16 8 22 -4 7 1 25 10 42
17 28 18 29 32 9 12 -18 11 -24 -12 -54z m-688 -80 c-2 -2 -17 -7 -33 -11
l-30 -7 30 32 c28 31 30 31 33 11 2 -12 2 -23 0 -25z m-74 -38 c-5 -13 -44
-41 -44 -31 0 5 41 43 47 44 1 0 0 -6 -3 -13z m679 -18 c-8 -8 -13 -7 -18 2
-6 8 -4 10 5 4 10 -6 12 -4 6 11 -6 15 -5 17 5 7 9 -10 10 -16 2 -24z m-608
11 c3 -5 2 -10 -4 -10 -5 0 -13 5 -16 10 -3 6 -2 10 4 10 5 0 13 -4 16 -10z
m-90 -100 c-3 -5 -10 -10 -16 -10 -5 0 -9 5 -9 10 0 6 7 10 16 10 8 0 12 -4 9
-10z"/>
<path d="M2448 1093 c6 -2 18 -2 25 0 6 3 1 5 -13 5 -14 0 -19 -2 -12 -5z"/>
<path d="M2520 421 c0 -5 5 -13 10 -16 6 -3 10 -2 10 4 0 5 -4 13 -10 16 -5 3
-10 2 -10 -4z"/>
<path d="M2466 313 c-6 -14 -5 -15 5 -6 7 7 10 15 7 18 -3 3 -9 -2 -12 -12z"/>
<path d="M1982 1598 c-6 -6 -12 -19 -12 -27 0 -13 2 -13 16 1 9 9 15 21 13 27
-3 9 -8 8 -17 -1z"/>
<path d="M1440 1561 c0 -17 3 -32 8 -34 4 -3 7 10 7 29 0 19 -3 34 -7 34 -5 0
-8 -13 -8 -29z"/>
<path d="M1412 1545 c0 -16 2 -22 5 -12 2 9 2 23 0 30 -3 6 -5 -1 -5 -18z"/>
<path d="M1482 1550 c0 -14 2 -19 5 -12 2 6 2 18 0 25 -3 6 -5 1 -5 -13z"/>
<path d="M1283 1533 c15 -2 39 -2 55 0 15 2 2 4 -28 4 -30 0 -43 -2 -27 -4z"/>
<path d="M1452 1280 c0 -14 2 -19 5 -12 2 6 2 18 0 25 -3 6 -5 1 -5 -13z"/>
<path d="M1580 1235 c0 -14 0 -28 -1 -32 0 -4 4 -9 10 -11 7 -2 11 11 11 32 0
20 -4 36 -10 36 -5 0 -10 -11 -10 -25z"/>
<path d="M1619 1258 c0 -2 -2 -18 -5 -35 -3 -25 0 -33 11 -33 10 0 15 11 15
35 0 19 -4 35 -10 35 -5 0 -10 -1 -11 -2z"/>
<path d="M1653 1225 c-1 -24 3 -35 13 -35 10 0 13 10 10 32 -4 44 -22 46 -23
3z"/>
<path d="M1697 1254 c-14 -14 -8 -64 8 -64 16 0 17 10 6 48 -3 13 -9 20 -14
16z"/>
<path d="M999 1218 c4 -28 6 -29 9 -9 2 13 0 27 -5 32 -6 6 -7 -3 -4 -23z"/>
<path d="M1039 1218 c4 -28 6 -29 9 -9 2 13 0 27 -5 32 -6 6 -7 -3 -4 -23z"/>
<path d="M1108 1233 c29 -2 74 -2 100 0 26 2 2 3 -53 3 -55 0 -76 -1 -47 -3z"/>
<path d="M1360 1226 c0 -11 9 -16 26 -16 31 0 28 23 -4 28 -15 2 -22 -2 -22
-12z"/>
<path d="M1436 1223 c-6 -14 -5 -15 5 -6 7 7 10 15 7 18 -3 3 -9 -2 -12 -12z"/>
<path d="M1572 1155 c15 -16 29 -27 31 -24 3 2 -10 15 -27 28 l-31 24 27 -28z"/>
<path d="M896 1157 c7 -19 42 -42 52 -33 3 3 0 6 -6 6 -6 0 -21 10 -32 23 -16
17 -20 18 -14 4z"/>
<path d="M1030 1162 c0 -6 -13 -18 -30 -27 -16 -9 -30 -20 -30 -26 0 -6 4 -6
13 1 6 5 23 19 37 29 14 11 22 23 18 27 -5 4 -8 2 -8 -4z"/>
<path d="M1638 1123 c6 -2 18 -2 25 0 6 3 1 5 -13 5 -14 0 -19 -2 -12 -5z"/>
<path d="M981 1033 c-1 -17 -5 -35 -11 -38 -5 -3 -10 -11 -10 -16 0 -6 4 -8 9
-4 6 3 14 -3 20 -12 8 -14 9 -8 5 22 -2 22 -1 33 3 25 7 -14 10 -14 26 2 17
18 13 21 -20 17 -4 0 -10 8 -14 18 -6 13 -8 10 -8 -14z"/>
<path d="M1530 1056 c0 -2 7 -7 16 -10 8 -3 12 -2 9 4 -6 10 -25 14 -25 6z"/>
<path d="M1972 1029 c-8 -12 -8 -19 -2 -19 5 0 10 -7 10 -16 0 -8 5 -12 11 -9
6 4 8 9 5 13 -3 3 1 10 9 16 13 10 13 12 -3 22 -15 10 -21 8 -30 -7z"/>
<path d="M710 1030 c-28 -17 4 -26 50 -14 34 9 39 13 18 13 -14 1 -32 3 -40 6
-7 3 -20 1 -28 -5z"/>
<path d="M907 1034 c-8 -8 22 -54 35 -54 5 0 6 6 1 13 -4 6 -8 18 -8 26 0 16
-18 25 -28 15z"/>
<path d="M1708 1015 c2 -14 6 -25 7 -25 1 0 5 11 7 25 3 16 1 25 -7 25 -8 0
-10 -9 -7 -25z"/>
<path d="M1173 1023 c9 -2 23 -2 30 0 6 3 -1 5 -18 5 -16 0 -22 -2 -12 -5z"/>
<path d="M570 1003 c8 -3 28 -17 44 -32 26 -24 28 -24 17 -4 -12 24 -41 43
-63 42 -9 0 -8 -2 2 -6z"/>
<path d="M1917 931 c-34 -62 -37 -139 -7 -161 20 -14 29 -37 10 -25 -5 3 -10
-3 -10 -14 0 -23 -25 -29 -33 -8 -4 9 -6 9 -6 -1 -1 -8 8 -16 19 -19 11 -3 20
-9 20 -14 0 -5 -7 -6 -15 -3 -10 4 -15 0 -15 -15 0 -21 3 -22 51 -26 23 -2 27
3 38 46 7 26 21 55 31 64 16 15 20 49 6 62 -3 3 -24 6 -48 7 -41 1 -43 3 -46
33 -2 18 6 49 18 73 30 59 19 60 -13 1z"/>
<path d="M1441 957 c-6 -6 -11 -26 -11 -44 l0 -33 75 0 75 0 -1 48 c-1 26 -4
38 -7 27 l-5 -20 -8 20 c-6 17 -8 17 -8 3 -1 -21 -12 -23 -29 -6 -16 16 -67
19 -81 5z m49 -47 c0 -5 -4 -10 -10 -10 -5 0 -10 5 -10 10 0 6 5 10 10 10 6 0
10 -4 10 -10z m17 -12 c-3 -8 -6 -5 -6 6 -1 11 2 17 5 13 3 -3 4 -12 1 -19z
m28 12 c3 -5 1 -10 -4 -10 -6 0 -11 5 -11 10 0 6 2 10 4 10 3 0 8 -4 11 -10z"/>
<path d="M506 941 c-13 -5 -1 -7 31 -7 28 1 46 4 40 8 -15 10 -46 9 -71 -1z"/>
<path d="M1390 941 c0 -5 -8 -12 -17 -14 -14 -4 -12 -5 5 -6 13 -1 22 5 22 14
0 8 -2 15 -5 15 -3 0 -5 -4 -5 -9z"/>
<path d="M115 929 c-4 -6 -5 -12 -2 -15 2 -3 7 2 10 11 7 17 1 20 -8 4z"/>
<path d="M970 930 c-11 -8 -7 -9 15 -4 37 8 45 14 19 14 -10 0 -26 -5 -34 -10z"/>
<path d="M1055 918 c11 -6 32 -22 46 -35 17 -16 29 -21 33 -14 4 6 2 11 -4 11
-7 0 -25 11 -42 25 -16 14 -35 25 -41 25 -7 0 -3 -6 8 -12z"/>
<path d="M528 913 c6 -2 18 -2 25 0 6 3 1 5 -13 5 -14 0 -19 -2 -12 -5z"/>
<path d="M909 893 l-24 -28 30 25 c17 14 32 26 34 28 2 1 0 2 -6 2 -5 0 -20
-12 -34 -27z"/>
<path d="M1318 913 c6 -2 18 -2 25 0 6 3 1 5 -13 5 -14 0 -19 -2 -12 -5z"/>
<path d="M1268 903 c7 -3 16 -2 19 1 4 3 -2 6 -13 5 -11 0 -14 -3 -6 -6z"/>
<path d="M1401 894 c0 -11 3 -14 6 -6 3 7 2 16 -1 19 -3 4 -6 -2 -5 -13z"/>
<path d="M2088 903 c10 -4 10 -8 1 -19 -21 -26 -2 -26 26 0 l28 26 -34 -1
c-19 0 -28 -3 -21 -6z"/>
<path d="M211 884 c0 -11 3 -14 6 -6 3 7 2 16 -1 19 -3 4 -6 -2 -5 -13z"/>
<path d="M1228 893 c7 -3 16 -2 19 1 4 3 -2 6 -13 5 -11 0 -14 -3 -6 -6z"/>
<path d="M308 883 c7 -3 16 -2 19 1 4 3 -2 6 -13 5 -11 0 -14 -3 -6 -6z"/>
<path d="M1178 883 c7 -3 16 -2 19 1 4 3 -2 6 -13 5 -11 0 -14 -3 -6 -6z"/>
<path d="M536 873 c-11 -11 -6 -23 9 -23 8 0 15 4 15 9 0 13 -16 22 -24 14z"/>
<path d="M950 853 l-35 -25 40 7 c22 4 45 12 50 17 6 6 4 7 -7 3 -20 -8 -25
10 -5 18 6 3 8 5 2 5 -5 0 -26 -11 -45 -25z"/>
<path d="M110 860 c0 -5 5 -10 10 -10 6 0 10 5 10 10 0 6 -4 10 -10 10 -5 0
-10 -4 -10 -10z"/>
<path d="M1423 854 c30 -36 14 -49 -65 -52 -106 -3 -111 -18 -10 -28 34 -4 62
-9 62 -13 0 -3 -7 -24 -16 -47 -15 -40 -15 -42 9 -66 13 -13 26 -29 28 -36 2
-7 26 -12 54 -13 83 -3 103 0 109 17 3 8 2 12 -4 9 -6 -3 -10 -2 -10 3 0 20
-33 21 -84 3 l-53 -18 -26 33 c-27 32 -27 33 -10 78 10 25 25 47 35 49 19 5
25 27 8 27 -5 0 -10 5 -10 11 0 7 10 9 28 5 24 -6 25 -5 7 5 -11 7 -31 21 -45
33 l-25 21 18 -21z"/>
<path d="M171 844 c0 -11 3 -14 6 -6 3 7 2 16 -1 19 -3 4 -6 -2 -5 -13z"/>
<path d="M102 834 c10 -10 20 -16 22 -13 3 3 -5 11 -17 18 -21 13 -21 12 -5
-5z"/>
<path d="M615 830 c-11 -12 -25 -18 -34 -15 -13 5 -14 4 -3 -7 10 -10 17 -7
39 15 15 15 25 27 22 27 -3 0 -14 -9 -24 -20z"/>
<path d="M1066 825 c-10 -8 -22 -12 -26 -10 -4 3 -13 -2 -20 -10 -11 -13 -10
-14 5 -9 13 5 16 4 11 -4 -11 -19 5 -14 20 5 22 31 27 5 5 -30 -31 -51 -28
-77 9 -77 29 0 29 1 28 53 -1 28 2 62 6 75 10 26 -8 30 -38 7z"/>
<path d="M1141 764 c0 -11 3 -14 6 -6 3 7 2 16 -1 19 -3 4 -6 -2 -5 -13z"/>
<path d="M1609 753 c-12 -16 -12 -17 1 -7 8 6 22 14 30 17 13 5 12 6 -1 6 -9
1 -23 -7 -30 -16z"/>
<path d="M938 751 c10 -6 9 -10 -7 -14 -13 -3 -21 -13 -21 -26 0 -17 6 -21 30
-21 23 0 30 5 30 19 0 31 -11 51 -29 51 -12 0 -13 -2 -3 -9z"/>
<path d="M2156 711 c-3 -5 0 -11 8 -14 15 -6 26 1 26 15 0 11 -27 10 -34 -1z"/>
<path d="M1600 680 c0 -11 5 -20 11 -20 6 0 8 7 5 16 -3 8 -2 12 4 9 6 -3 10
-1 10 4 0 6 -7 11 -15 11 -8 0 -15 -9 -15 -20z"/>
<path d="M922 648 c16 -16 35 -28 43 -28 19 0 19 -4 0 -40 -9 -17 -13 -30 -11
-30 3 0 12 13 20 28 9 17 29 33 48 40 l33 11 -31 -5 c-34 -5 -78 8 -109 34
-12 9 -8 5 7 -10z"/>
<path d="M1087 655 c-15 -14 -24 -25 -19 -25 5 0 19 11 32 25 30 32 23 32 -13
0z"/>
<path d="M1348 673 c7 -3 16 -2 19 1 4 3 -2 6 -13 5 -11 0 -14 -3 -6 -6z"/>
<path d="M2171 671 c-8 -5 -9 -11 -3 -15 5 -3 15 1 22 9 14 16 3 20 -19 6z"/>
<path d="M1580 661 c0 -6 4 -13 10 -16 6 -3 7 1 4 9 -7 18 -14 21 -14 7z"/>
<path d="M521 639 c-24 -14 -32 -16 -28 -6 4 10 -1 13 -16 12 -12 -1 -22 -3
-22 -4 0 -3 -91 -14 -122 -15 -11 -1 -19 -4 -16 -8 5 -10 -11 -10 -21 -1 -8 8
-12 9 -121 23 -44 5 -101 10 -127 10 l-48 0 0 -325 0 -325 860 0 860 0 0 24
c0 19 -5 24 -20 23 -13 -1 -18 -7 -15 -17 7 -23 -523 -20 -683 4 -63 9 -121
16 -130 15 -44 -4 -74 2 -69 14 3 8 -6 13 -27 14 -96 6 -135 12 -166 24 -19 7
-38 12 -42 11 -5 -1 -8 2 -8 7 0 4 -11 6 -25 3 -19 -3 -25 0 -25 13 0 21 -17
38 -57 54 -18 7 -45 24 -60 37 -15 13 -56 33 -90 46 -35 12 -63 25 -63 30 0 4
-7 8 -15 8 -8 0 -23 8 -33 18 -50 47 -79 66 -97 64 l-20 -2 20 9 c11 4 30 4
43 0 17 -6 21 -6 16 2 -5 8 1 10 18 6 66 -17 148 43 148 109 0 20 -4 43 -9 52
-8 15 -1 17 71 16 57 -1 84 3 94 13 13 13 14 9 10 -29 -4 -31 -3 -34 2 -13 6
24 12 29 30 27 13 -2 22 2 23 10 1 7 5 2 9 -12 11 -36 11 -50 0 -50 -5 0 -10
7 -10 15 0 8 -6 15 -14 15 -9 0 -13 -10 -12 -25 1 -24 4 -25 69 -25 l67 0 0
30 c0 17 -4 30 -10 30 -5 0 -10 -9 -10 -20 0 -11 -4 -20 -10 -20 -5 0 -10 6
-10 14 0 26 12 46 27 46 10 0 13 6 9 16 -3 9 -6 17 -6 19 0 1 -20 0 -44 -2
-49 -6 -71 11 -34 26 13 6 16 10 8 10 -8 1 -30 -8 -49 -20z m-232 -31 c-1 -7
3 -26 10 -43 18 -42 7 -96 -24 -122 -32 -28 -121 -34 -111 -8 3 8 2 14 -2 14
-22 -4 -30 4 -27 26 1 14 6 29 10 33 5 4 5 -1 2 -11 -10 -26 2 -41 19 -26 12
10 12 14 2 20 -10 7 -8 9 5 9 14 0 17 5 12 23 -5 19 -5 20 5 4 6 -9 8 -26 5
-37 -5 -16 -2 -20 15 -20 13 0 19 4 14 11 -3 6 -1 15 6 19 11 7 10 13 -4 34
-14 22 -14 26 -2 26 8 0 25 13 38 29 26 34 30 36 27 19z m-172 -90 c-3 -8 -6
-5 -6 6 -1 11 2 17 5 13 3 -3 4 -12 1 -19z m-20 -30 c-3 -8 -6 -5 -6 6 -1 11
2 17 5 13 3 -3 4 -12 1 -19z m43 -70 c0 -6 -7 -5 -15 2 -8 7 -15 17 -15 22 0
6 7 5 15 -2 8 -7 15 -17 15 -22z m-46 6 c3 -8 2 -12 -4 -9 -6 3 -10 10 -10 16
0 14 7 11 14 -7z m616 -354 c0 -5 -2 -10 -4 -10 -3 0 -8 5 -11 10 -3 6 -1 10
4 10 6 0 11 -4 11 -10z"/>
<path d="M262 573 c-16 -30 -12 -103 5 -103 9 0 13 6 10 14 -3 8 1 17 9 20 13
5 12 9 -5 27 -15 17 -18 26 -10 40 5 11 7 19 5 19 -3 0 -9 -8 -14 -17z"/>
<path d="M615 646 c17 -7 37 -26 44 -42 12 -27 14 -28 22 -9 4 11 8 14 8 7 1
-8 8 -11 19 -8 9 3 49 6 89 8 73 2 93 18 23 18 -45 0 -76 10 -61 19 5 4 -10 6
-35 6 -28 0 -44 -4 -44 -12 0 -19 -14 -16 -35 7 -10 11 -28 20 -39 20 -17 -1
-15 -3 9 -14z"/>
<path d="M894 617 c-17 -10 -15 -12 21 -18 49 -8 52 -6 22 14 -18 11 -28 12
-43 4z"/>
<path d="M1385 611 c-3 -6 -15 -11 -26 -11 -10 0 -19 -4 -19 -10 0 -5 -14 -10
-31 -10 -24 0 -30 -4 -27 -17 3 -15 14 -18 67 -18 77 0 98 18 64 54 -13 14
-23 19 -28 12z m-27 -48 c-10 -2 -26 -2 -35 0 -10 3 -2 5 17 5 19 0 27 -2 18
-5z"/>
<path d="M2126 593 c-6 -14 -5 -15 5 -6 7 7 10 15 7 18 -3 3 -9 -2 -12 -12z"/>
<path d="M672 545 c0 -16 2 -22 5 -12 2 9 2 23 0 30 -3 6 -5 -1 -5 -18z"/>
<path d="M1922 528 c-1 -25 -5 -55 -8 -65 -5 -17 -5 -17 6 0 6 9 9 39 7 65
l-3 47 -2 -47z"/>
<path d="M490 511 c0 -9 49 -56 53 -50 1 2 -10 16 -25 31 -15 15 -28 23 -28
19z"/>
<path d="M906 473 c-6 -14 -5 -15 5 -6 7 7 10 15 7 18 -3 3 -9 -2 -12 -12z"/>
<path d="M1307 479 c7 -7 15 -10 18 -7 3 3 -2 9 -12 12 -14 6 -15 5 -6 -5z"/>
<path d="M568 453 c6 -2 18 -2 25 0 6 3 1 5 -13 5 -14 0 -19 -2 -12 -5z"/>
<path d="M771 426 c2 -2 24 -6 48 -9 29 -4 40 -2 30 4 -13 8 -88 14 -78 5z"/>
<path d="M703 393 c0 -9 4 -10 14 -2 7 6 13 12 13 14 0 1 -6 2 -13 2 -8 0 -14
-6 -14 -14z"/>
<path d="M891 384 c13 -17 26 -30 28 -27 3 2 -8 16 -24 31 l-28 27 24 -31z"/>
<path d="M1222 380 c0 -14 2 -19 5 -12 2 6 2 18 0 25 -3 6 -5 1 -5 -13z"/>
<path d="M2105 390 c-3 -5 1 -10 10 -10 9 0 13 5 10 10 -3 6 -8 10 -10 10 -2
0 -7 -4 -10 -10z"/>
<path d="M665 340 c-8 -16 -15 -37 -14 -47 0 -12 3 -9 8 8 5 14 14 35 20 47 6
12 9 22 7 22 -3 0 -12 -13 -21 -30z"/>
<path d="M1400 302 c-11 -13 -20 -31 -20 -38 0 -15 47 -54 66 -54 8 0 14 -6
14 -14 0 -8 7 -17 16 -20 15 -6 15 -3 -1 20 -12 19 -16 40 -13 75 5 43 3 48
-19 52 -17 3 -29 -3 -43 -21z"/>
<path d="M687 313 c-12 -11 -8 -88 5 -101 17 -17 48 -15 48 3 0 20 47 20 67 0
14 -14 17 -14 32 0 10 8 27 15 39 15 26 0 28 12 7 30 -17 14 -20 40 -4 40 5 0
7 5 4 10 -7 11 -188 14 -198 3z"/>
<path d="M932 280 c0 -19 2 -27 5 -17 2 9 2 25 0 35 -3 9 -5 1 -5 -18z"/>
<path d="M990 300 c-8 -5 -10 -10 -5 -10 6 0 17 5 25 10 8 5 11 10 5 10 -5 0
-17 -5 -25 -10z"/>
<path d="M1118 298 c6 -6 18 -8 28 -6 14 3 12 5 -9 10 -19 3 -25 2 -19 -4z"/>
<path d="M655 220 c6 -41 46 -86 91 -100 32 -11 90 -2 122 18 20 14 62 75 62
91 -1 9 -7 2 -14 -15 -16 -36 -68 -78 -109 -88 -18 -4 -43 0 -72 13 -42 19
-59 38 -76 90 -8 22 -8 20 -4 -9z"/>
</g>
</svg>
